<mxfile host="app.diagrams.net" modified="2023-11-06T12:36:58.803Z" agent="Mozilla/5.0 (Windows NT 10.0; Win64; x64) AppleWebKit/537.36 (KHTML, like Gecko) Chrome/118.0.0.0 Safari/537.36" etag="QBh_zQ89-vxiGdD-ldl3" version="22.0.8" type="device">
  <diagram name="Pagina-1" id="RRDYi-F-hyLXYyx5dI-D">
    <mxGraphModel dx="1342" dy="573" grid="1" gridSize="10" guides="1" tooltips="1" connect="1" arrows="1" fold="1" page="1" pageScale="1" pageWidth="827" pageHeight="1169" math="0" shadow="0">
      <root>
        <mxCell id="0" />
        <mxCell id="1" parent="0" />
        <mxCell id="sMdZ3lYBb7GyaaZm9x2Q-11" value="STD GameTimerControl" style="shape=umlFrame;whiteSpace=wrap;html=1;pointerEvents=0;width=120;height=30;" vertex="1" parent="1">
          <mxGeometry x="180" y="20" width="330" height="410" as="geometry" />
        </mxCell>
        <mxCell id="sMdZ3lYBb7GyaaZm9x2Q-12" value="" style="line;strokeWidth=1;fillColor=none;align=left;verticalAlign=middle;spacingTop=-1;spacingLeft=3;spacingRight=3;rotatable=0;labelPosition=right;points=[];portConstraint=eastwest;strokeColor=inherit;" vertex="1" parent="1">
          <mxGeometry x="180" y="130" width="330" height="8" as="geometry" />
        </mxCell>
        <mxCell id="sMdZ3lYBb7GyaaZm9x2Q-15" style="edgeStyle=orthogonalEdgeStyle;rounded=0;orthogonalLoop=1;jettySize=auto;html=1;" edge="1" parent="1" source="sMdZ3lYBb7GyaaZm9x2Q-13" target="sMdZ3lYBb7GyaaZm9x2Q-14">
          <mxGeometry relative="1" as="geometry" />
        </mxCell>
        <mxCell id="sMdZ3lYBb7GyaaZm9x2Q-13" value="" style="shape=ellipse;html=1;fillColor=strokeColor;strokeWidth=2;verticalLabelPosition=bottom;verticalAlignment=top;perimeter=ellipsePerimeter;" vertex="1" parent="1">
          <mxGeometry x="240" y="60" width="40" height="40" as="geometry" />
        </mxCell>
        <mxCell id="sMdZ3lYBb7GyaaZm9x2Q-14" value="start()/startflag.set()&lt;br&gt;gameOver()/gameOverflag.set()" style="rounded=1;whiteSpace=wrap;html=1;" vertex="1" parent="1">
          <mxGeometry x="320" y="50" width="170" height="60" as="geometry" />
        </mxCell>
        <mxCell id="sMdZ3lYBb7GyaaZm9x2Q-26" style="edgeStyle=orthogonalEdgeStyle;rounded=0;orthogonalLoop=1;jettySize=auto;html=1;exitX=0.5;exitY=1;exitDx=0;exitDy=0;" edge="1" parent="1" source="sMdZ3lYBb7GyaaZm9x2Q-16" target="sMdZ3lYBb7GyaaZm9x2Q-25">
          <mxGeometry relative="1" as="geometry" />
        </mxCell>
        <mxCell id="sMdZ3lYBb7GyaaZm9x2Q-16" value="" style="shape=ellipse;html=1;fillColor=strokeColor;strokeWidth=2;verticalLabelPosition=bottom;verticalAlignment=top;perimeter=ellipsePerimeter;" vertex="1" parent="1">
          <mxGeometry x="270" y="160" width="40" height="40" as="geometry" />
        </mxCell>
        <mxCell id="sMdZ3lYBb7GyaaZm9x2Q-27" style="edgeStyle=orthogonalEdgeStyle;rounded=0;orthogonalLoop=1;jettySize=auto;html=1;" edge="1" parent="1" source="sMdZ3lYBb7GyaaZm9x2Q-25" target="sMdZ3lYBb7GyaaZm9x2Q-32">
          <mxGeometry relative="1" as="geometry">
            <mxPoint x="290" y="290" as="targetPoint" />
          </mxGeometry>
        </mxCell>
        <mxCell id="sMdZ3lYBb7GyaaZm9x2Q-45" value="startflag" style="edgeLabel;html=1;align=center;verticalAlign=middle;resizable=0;points=[];" vertex="1" connectable="0" parent="sMdZ3lYBb7GyaaZm9x2Q-27">
          <mxGeometry x="-0.2716" y="5" relative="1" as="geometry">
            <mxPoint as="offset" />
          </mxGeometry>
        </mxCell>
        <mxCell id="sMdZ3lYBb7GyaaZm9x2Q-25" value="idle" style="rounded=1;whiteSpace=wrap;html=1;" vertex="1" parent="1">
          <mxGeometry x="250" y="220" width="80" height="40" as="geometry" />
        </mxCell>
        <mxCell id="sMdZ3lYBb7GyaaZm9x2Q-32" value="&lt;p style=&quot;margin:0px;margin-top:4px;text-align:center;&quot;&gt;GameTimerControl&lt;/p&gt;&lt;hr&gt;&lt;p&gt;&lt;/p&gt;&lt;p style=&quot;margin:0px;margin-left:8px;text-align:left;&quot;&gt;entry /&amp;nbsp;displayTime: start()&lt;br&gt;&lt;br&gt;&lt;/p&gt;" style="shape=mxgraph.sysml.simpleState;html=1;overflow=fill;whiteSpace=wrap;align=center;" vertex="1" parent="1">
          <mxGeometry x="210" y="355" width="160" height="60" as="geometry" />
        </mxCell>
        <mxCell id="sMdZ3lYBb7GyaaZm9x2Q-47" style="edgeStyle=orthogonalEdgeStyle;rounded=0;orthogonalLoop=1;jettySize=auto;html=1;entryX=1;entryY=0.5;entryDx=0;entryDy=0;" edge="1" parent="1" source="sMdZ3lYBb7GyaaZm9x2Q-32" target="sMdZ3lYBb7GyaaZm9x2Q-25">
          <mxGeometry relative="1" as="geometry">
            <mxPoint x="280" y="460" as="targetPoint" />
            <Array as="points">
              <mxPoint x="400" y="385" />
              <mxPoint x="400" y="240" />
            </Array>
          </mxGeometry>
        </mxCell>
        <mxCell id="sMdZ3lYBb7GyaaZm9x2Q-48" value="gameOverflag/&amp;nbsp;&lt;br&gt;&lt;span style=&quot;font-size: 12px; background-color: rgb(251, 251, 251);&quot;&gt;ReceivePostGameData_star()&lt;br&gt;&lt;/span&gt;" style="edgeLabel;html=1;align=center;verticalAlign=middle;resizable=0;points=[];" vertex="1" connectable="0" parent="sMdZ3lYBb7GyaaZm9x2Q-47">
          <mxGeometry x="-0.44" y="-2" relative="1" as="geometry">
            <mxPoint x="-2" y="-26" as="offset" />
          </mxGeometry>
        </mxCell>
      </root>
    </mxGraphModel>
  </diagram>
</mxfile>
